<svg width="12" height="12" viewBox="0 0 12 12" fill="none" xmlns="http://www.w3.org/2000/svg">
<g opacity="0.5">
<path d="M1 3.1499C1 2.04533 1.89543 1.1499 3 1.1499H9C10.1046 1.1499 11 2.04533 11 3.1499V8.1499C11 9.25447 10.1046 10.1499 9 10.1499H3C1.89543 10.1499 1 9.25447 1 8.1499V3.1499Z" stroke="#DDDDDD" stroke-width="2"/>
<mask id="mask0_5_349" style="mask-type:luminance" maskUnits="userSpaceOnUse" x="0" y="0" width="12" height="11">
<g opacity="0.5">
<path d="M1 3.1499C1 2.04533 1.89543 1.1499 3 1.1499H9C10.1046 1.1499 11 2.04533 11 3.1499V8.1499C11 9.25447 10.1046 10.1499 9 10.1499H3C1.89543 10.1499 1 9.25447 1 8.1499V3.1499Z" fill="#C4C4C4" stroke="#DDDDDD"/>
</g>
</mask>
<g mask="url(#mask0_5_349)">
<path d="M6.66497 6.25604L25.0381 -10.1032C25.7245 -10.7144 25.2922 -11.8501 24.3731 -11.8501H-12.3731C-13.2922 -11.8501 -13.7245 -10.7144 -13.0381 -10.1032L5.33499 6.25604C5.71407 6.59357 6.28589 6.59357 6.66497 6.25604Z" stroke="#DDDDDD" stroke-width="2"/>
</g>
</g>
</svg>
