<svg width="15" height="20" viewBox="0 0 15 20" fill="none" xmlns="http://www.w3.org/2000/svg">
<g clip-path="url(#clip0_5_2215)">
<g clip-path="url(#clip1_5_2215)">
<path fill-rule="evenodd" clip-rule="evenodd" d="M13.699 14.8283L11.679 15.5623C11.614 15.5843 11.544 15.5813 11.482 15.5523C11.419 15.5233 11.371 15.4723 11.346 15.4083L10.299 12.5763H5.39902L4.35501 15.4023C4.33001 15.4663 4.282 15.5183 4.22 15.5473C4.158 15.5763 4.08801 15.5793 4.02301 15.5573L2.00601 14.8233C1.97401 14.8133 1.94501 14.7973 1.91901 14.7753C1.89401 14.7543 1.873 14.7273 1.858 14.6983C1.843 14.6683 1.834 14.6353 1.832 14.6023C1.83 14.5693 1.834 14.5363 1.845 14.5043L5.923 3.80429C6.087 3.43129 6.35603 3.11428 6.69803 2.89128C7.03903 2.66928 7.438 2.55029 7.845 2.55029C8.252 2.55029 8.651 2.66928 8.992 2.89128C9.334 3.11428 9.60303 3.43129 9.76703 3.80429L13.86 14.5103C13.871 14.5423 13.875 14.5753 13.873 14.6083C13.871 14.6413 13.862 14.6743 13.847 14.7033C13.832 14.7333 13.811 14.7593 13.786 14.7813C13.76 14.8023 13.731 14.8183 13.699 14.8283ZM8.16901 6.50429L7.84802 5.60429V5.59729L6.00302 10.5603H9.69501L8.16901 6.50429ZM1.84402 17.5603H13.876C14.132 17.5683 14.374 17.6763 14.552 17.8593C14.73 18.0433 14.83 18.2893 14.83 18.5453C14.83 18.8003 14.73 19.0463 14.552 19.2303C14.374 19.4143 14.132 19.5213 13.876 19.5293H1.84402C1.58802 19.5213 1.34603 19.4143 1.16803 19.2303C0.99003 19.0463 0.890015 18.8003 0.890015 18.5453C0.890015 18.2893 0.99003 18.0433 1.16803 17.8593C1.34603 17.6763 1.58802 17.5683 1.84402 17.5603Z" fill="#999999"/>
</g>
</g>
<defs>
<clipPath id="clip0_5_2215">
<rect width="14" height="19" fill="white" transform="translate(0.859985 0.560059)"/>
</clipPath>
<clipPath id="clip1_5_2215">
<rect width="1276" height="320" fill="white" transform="translate(-322.14 -247.44)"/>
</clipPath>
</defs>
</svg>
