<svg width="33" height="11" viewBox="0 0 33 11" fill="none" xmlns="http://www.w3.org/2000/svg">
<g clip-path="url(#clip0_5_1991)">
<g clip-path="url(#clip1_5_1991)">
<path fill-rule="evenodd" clip-rule="evenodd" d="M30.088 10.0602C30.088 10.0602 29.858 8.66024 29.781 8.30824H26.463C26.371 8.58323 25.912 10.0602 25.912 10.0602H23.205L27.044 0.904243C27.1394 0.632243 27.3247 0.400253 27.5694 0.248253C27.8141 0.0952525 28.1036 0.0302468 28.39 0.0642468H30.39L32.49 10.0642H30.09L30.088 10.0602ZM28.757 3.61924L28.573 2.76524C28.451 3.14624 28.221 3.74123 28.237 3.72623C28.237 3.72623 27.411 5.93826 27.212 6.51826H29.353C29.246 6.01526 28.757 3.61924 28.757 3.61924ZM23.189 2.36924C22.5843 2.09624 21.9251 1.96525 21.262 1.98725C20.237 1.98725 19.778 2.41425 19.762 2.84125C19.762 3.31525 20.313 3.61925 21.23 4.07725C22.714 4.77725 23.402 5.64925 23.387 6.79325C23.372 8.85225 21.613 10.1932 18.887 10.1932C17.9038 10.1962 16.9288 10.0153 16.012 9.66026L16.363 7.41724L16.715 7.58524C17.4661 7.95524 18.2951 8.13824 19.132 8.11924C19.4674 8.18424 19.8152 8.12025 20.1049 7.93925C20.3946 7.75725 20.6044 7.47225 20.692 7.14225C20.692 6.70025 20.356 6.37924 19.346 5.89124C18.367 5.41924 17.067 4.62526 17.082 3.19126C17.098 1.25426 18.887 -0.108757 21.442 -0.108757C22.2355 -0.113757 23.0232 0.0262534 23.767 0.302253L23.415 2.46925L23.189 2.36924ZM11.809 10.0602L13.431 0.060249H16.016L14.395 10.0602H11.809ZM5.58398 10.0602L3.57698 2.53223L3.41998 1.92124C3.77368 2.09824 4.10868 2.31024 4.41998 2.55424C5.36138 3.32224 6.16628 4.24425 6.80098 5.28025L6.79298 5.23725L6.84298 5.49625L7.11898 6.86924L9.65298 0.060249H12.391L8.32198 10.0602H5.57998H5.58398Z" fill="#999999"/>
<path opacity="0.35" fill-rule="evenodd" clip-rule="evenodd" d="M4.41501 2.55383C4.10371 2.30983 3.76871 2.09784 3.41501 1.92084L3.26801 1.36685C2.53771 0.936852 1.75761 0.597849 0.945007 0.357849V0.0478516H4.91601C5.15411 0.0488516 5.38471 0.130838 5.56941 0.280838C5.75421 0.430838 5.88181 0.639849 5.93101 0.872849L6.79101 5.27985C6.15781 4.24385 5.35461 3.32283 4.41501 2.55383Z" fill="#999999"/>
</g>
</g>
<defs>
<clipPath id="clip0_5_1991">
<rect width="32" height="10" fill="white" transform="translate(0.97998 0.0600586)"/>
</clipPath>
<clipPath id="clip1_5_1991">
<rect width="1276" height="320" fill="white" transform="translate(-39.02 -253.94)"/>
</clipPath>
</defs>
</svg>
