<svg width="26" height="19" viewBox="0 0 26 19" fill="none" xmlns="http://www.w3.org/2000/svg">
<g clip-path="url(#clip0_5_2439)">
<g clip-path="url(#clip1_5_2439)">
<path fill-rule="evenodd" clip-rule="evenodd" d="M16.73 18.0601C21.701 18.0601 25.73 14.0311 25.73 9.06006C25.73 4.08906 21.701 0.0600586 16.73 0.0600586C11.759 0.0600586 7.72998 4.08906 7.72998 9.06006C7.72998 14.0311 11.759 18.0601 16.73 18.0601ZM16.73 12.5601C18.663 12.5601 20.23 10.9931 20.23 9.06006C20.23 7.12706 18.663 5.56006 16.73 5.56006C14.797 5.56006 13.23 7.12706 13.23 9.06006C13.23 10.9931 14.797 12.5601 16.73 12.5601Z" fill="#999999"/>
<path d="M7.72998 3.06006H0.72998L4.46295 15.0601H7.72998V3.06006Z" fill="#999999"/>
</g>
</g>
<defs>
<clipPath id="clip0_5_2439">
<rect width="25" height="18" fill="white" transform="translate(0.72998 0.0600586)"/>
</clipPath>
<clipPath id="clip1_5_2439">
<rect width="1276" height="320" fill="white" transform="translate(-533.27 -248.94)"/>
</clipPath>
</defs>
</svg>
