<svg width="19" height="19" viewBox="0 0 19 19" fill="none" xmlns="http://www.w3.org/2000/svg">
<g clip-path="url(#clip0_5_2551)">
<g clip-path="url(#clip1_5_2551)">
<path d="M12.84 9.66605L16.51 17.3401H10.75L7.73798 11.0431C7.25398 11.4021 6.86998 11.8921 6.63898 12.4631C6.48298 12.8491 6.39697 13.2721 6.39697 13.7151C6.39697 14.5421 6.69699 15.2991 7.19299 15.8791C6.70399 17.1551 5.47898 18.0601 4.04498 18.0601C2.18098 18.0601 0.669983 16.5321 0.669983 14.6461C0.669983 14.2381 0.740972 13.8471 0.870972 13.4841C1.55297 10.9891 3.891 8.95507 6.5 8.45407L2.82996 0.78006H8.58997L11.602 7.07706C12.087 6.71806 12.47 6.22806 12.701 5.65706C12.857 5.27106 12.943 4.84806 12.943 4.40506C12.943 3.57806 12.643 2.82106 12.147 2.24106C12.636 0.965058 13.861 0.0600586 15.295 0.0600586C17.159 0.0600586 18.67 1.58806 18.67 3.47406C18.67 3.88206 18.599 4.27306 18.47 4.63506C17.787 7.13006 15.449 9.16505 12.84 9.66605Z" fill="#999999"/>
</g>
</g>
<defs>
<clipPath id="clip0_5_2551">
<rect width="18" height="18" fill="white" transform="translate(0.669983 0.0600586)"/>
</clipPath>
<clipPath id="clip1_5_2551">
<rect width="1276" height="320" fill="white" transform="translate(-618.33 -248.94)"/>
</clipPath>
</defs>
</svg>
