<svg width="25" height="17" viewBox="0 0 25 17" fill="none" xmlns="http://www.w3.org/2000/svg">
<g clip-path="url(#clip0_5_1879)">
<g clip-path="url(#clip1_5_1879)">
<path opacity="0.3" fill-rule="evenodd" clip-rule="evenodd" d="M16.05 16.0599C14.645 16.0599 13.265 15.6879 12.05 14.9809C13.266 14.2799 14.276 13.2719 14.978 12.0569C15.68 10.8419 16.05 9.46292 16.05 8.05992C16.05 6.65692 15.68 5.27793 14.978 4.06292C14.276 2.84792 13.266 1.83991 12.05 1.13891C13.113 0.522914 14.303 0.159924 15.528 0.0779244C16.754 -0.00407559 17.982 0.196922 19.117 0.665922C20.252 1.13492 21.264 1.85892 22.074 2.78192C22.885 3.70492 23.472 4.80192 23.79 5.98892C24.108 7.17492 24.148 8.41891 23.908 9.62291C23.668 10.8279 23.154 11.9609 22.406 12.9349C21.657 13.9089 20.695 14.6969 19.593 15.2389C18.49 15.7809 17.278 16.0619 16.05 16.0599Z" fill="#999999"/>
<path fill-rule="evenodd" clip-rule="evenodd" d="M8.04996 8.06007C8.04996 9.46307 8.41995 10.8421 9.12195 12.0571C9.82495 13.2721 10.834 14.2801 12.05 14.9811C10.834 15.6861 9.45394 16.0581 8.04794 16.0601C6.64294 16.0621 5.26195 15.6931 4.04395 14.9921C2.82595 14.2901 1.81396 13.2801 1.11096 12.0631C0.407962 10.8461 0.0379639 9.46607 0.0379639 8.06007C0.0379639 6.65407 0.407962 5.27406 1.11096 4.05706C1.81396 2.84006 2.82595 1.83006 4.04395 1.12806C5.26195 0.42706 6.64294 0.0580667 8.04794 0.0600667C9.45394 0.0620667 10.834 0.434061 12.05 1.13906C10.834 1.84006 9.82495 2.84807 9.12195 4.06307C8.41995 5.27807 8.04996 6.65707 8.04996 8.06007Z" fill="#999999"/>
<path opacity="0.65" fill-rule="evenodd" clip-rule="evenodd" d="M12.05 14.9812C10.834 14.2802 9.82398 13.2722 9.12198 12.0572C8.41998 10.8422 8.04999 9.46317 8.04999 8.06017C8.04999 6.65717 8.41998 5.27817 9.12198 4.06317C9.82398 2.84817 10.834 1.84016 12.05 1.13916C13.266 1.84016 14.276 2.84817 14.978 4.06317C15.68 5.27817 16.05 6.65717 16.05 8.06017C16.05 9.46317 15.68 10.8422 14.978 12.0572C14.276 13.2722 13.266 14.2802 12.05 14.9812Z" fill="#999999"/>
</g>
</g>
<defs>
<clipPath id="clip0_5_1879">
<rect width="24" height="16" fill="white" transform="translate(0.0499878 0.0600586)"/>
</clipPath>
<clipPath id="clip1_5_1879">
<rect width="1276" height="320" fill="white" transform="translate(-278.95 -249.94)"/>
</clipPath>
</defs>
</svg>
