<svg width="64" height="17" viewBox="0 0 64 17" fill="none" xmlns="http://www.w3.org/2000/svg">
<g clip-path="url(#clip0_5_2664)">
<g clip-path="url(#clip1_5_2664)">
<path fill-rule="evenodd" clip-rule="evenodd" d="M0.609985 0.0600586H55.61V18.0601H0.609985V0.0600586ZM10.69 7.67105V12.0531H8.96997V7.67105H6.60699V6.07607H13.052V7.67105H10.69ZM13.74 6.07607H15.46V12.0531H13.74V6.07607ZM16.72 12.0531V6.07607H18.257L21.135 9.35406V6.07607H22.718V12.0531H21.25L18.302 8.75107V12.0531H16.72ZM28.082 12.0531L26.098 9.79306H25.64V12.0531H23.977V6.07607H25.64V8.32407H26.098L28.106 6.07607H30.193L27.532 8.93906L30.296 12.0531H28.082ZM30.139 9.07706C30.139 7.29406 31.482 5.91306 33.718 5.91306C35.942 5.91306 37.284 7.29406 37.284 9.07706C37.284 10.8601 35.942 12.2421 33.718 12.2421C31.482 12.2421 30.139 10.8601 30.139 9.07706ZM31.894 9.07706C31.894 10.0571 32.605 10.7851 33.718 10.7851C34.819 10.7851 35.542 10.0571 35.542 9.07706C35.542 8.09806 34.819 7.38205 33.718 7.38205C32.605 7.38205 31.894 8.09806 31.894 9.07706ZM38.074 6.07607H43.59V7.59607H39.737V8.73807H43.35V10.0561H39.737V12.0531H38.074V6.07607ZM44.335 6.07607H49.851V7.59607H45.998V8.73807H49.611V10.0561H45.998V12.0531H44.335V6.07607Z" fill="#999999"/>
</g>
</g>
<defs>
<clipPath id="clip0_5_2664">
<rect width="63" height="16" fill="white" transform="translate(0.609985 0.0600586)"/>
</clipPath>
<clipPath id="clip1_5_2664">
<rect width="1276" height="320" fill="white" transform="translate(-656.39 -248.94)"/>
</clipPath>
</defs>
</svg>
