<svg width="20" height="21" viewBox="0 0 20 21" fill="none" xmlns="http://www.w3.org/2000/svg">
<g clip-path="url(#clip0_5_2103)">
<g clip-path="url(#clip1_5_2103)">
<path d="M17.914 9.26306C17.918 9.36206 17.92 9.46106 17.92 9.56006C17.92 13.7021 14.562 17.0601 10.42 17.0601C6.27798 17.0601 2.91998 13.7021 2.91998 9.56006C2.91998 5.41806 6.27798 2.06006 10.42 2.06006C11.944 2.06006 13.361 2.51406 14.544 3.29506L16.177 2.00206C14.58 0.78406 12.584 0.0600586 10.42 0.0600586C5.17298 0.0600586 0.919983 4.31306 0.919983 9.56006C0.919983 14.8071 5.17298 19.0601 10.42 19.0601C15.667 19.0601 19.92 14.8071 19.92 9.56006C19.92 8.95506 19.863 8.36306 19.755 7.78906L17.914 9.26306Z" fill="#999999"/>
<path d="M10.42 12.06L18.969 5.41104C18.677 4.81204 18.325 4.24805 17.919 3.72705L10.42 9.56004L6.91998 7.37305V9.86504L10.42 12.06Z" fill="#999999"/>
</g>
</g>
<defs>
<clipPath id="clip0_5_2103">
<rect width="19" height="20" fill="white" transform="translate(0.919983 0.0600586)"/>
</clipPath>
<clipPath id="clip1_5_2103">
<rect width="1276" height="320" fill="white" transform="translate(-239.08 -247.94)"/>
</clipPath>
</defs>
</svg>
