<svg width="37" height="21" viewBox="0 0 37 21" fill="none" xmlns="http://www.w3.org/2000/svg">
<g clip-path="url(#clip0_5_2328)">
<g clip-path="url(#clip1_5_2328)">
<path fill-rule="evenodd" clip-rule="evenodd" d="M9.81 15.0603V9.71529H9.56598L7.82599 15.0603H5.75998H5.754L4.01797 9.71529H3.776V15.0603H0.799988V6.06029H3.776C4.143 6.05529 4.50199 6.16829 4.79999 6.38129C5.09899 6.59429 5.32197 6.89729 5.43597 7.24629L6.659 11.4063H6.91599L8.14099 7.24629C8.25599 6.89629 8.47998 6.59229 8.78098 6.37929C9.08098 6.16529 9.442 6.05429 9.81 6.06029H12.786V15.0603H9.81Z" fill="#999999"/>
<path fill-rule="evenodd" clip-rule="evenodd" d="M20.778 15.0601V9.71506H20.551L18.67 14.2001C18.554 14.4561 18.367 14.6741 18.131 14.8271C17.895 14.9791 17.619 15.0601 17.338 15.0601H14.813V6.06006H17.813V11.4051H18.051L19.956 6.91505L19.971 6.88106C20.091 6.63606 20.278 6.42906 20.51 6.28506C20.742 6.14006 21.01 6.06406 21.283 6.06406H23.808V15.0641H20.78L20.778 15.0601Z" fill="#999999"/>
<path fill-rule="evenodd" clip-rule="evenodd" d="M32.347 12.0742H28.819V15.0602H25.819V10.0532H35.7719C35.4629 10.6892 34.973 11.2202 34.364 11.5792C33.755 11.9392 33.053 12.1112 32.347 12.0742Z" fill="#999999"/>
<path opacity="0.55" fill-rule="evenodd" clip-rule="evenodd" d="M35.719 9.06607H30.3069C27.8349 9.06607 25.7789 7.76606 25.3459 6.06006H32.369C34.259 6.06006 35.791 7.17705 35.791 8.55405C35.791 8.72705 35.767 8.89907 35.719 9.06607Z" fill="#999999"/>
</g>
</g>
<defs>
<clipPath id="clip0_5_2328">
<rect width="36" height="20" fill="white" transform="translate(0.799988 0.0600586)"/>
</clipPath>
<clipPath id="clip1_5_2328">
<rect width="1276" height="320" fill="white" transform="translate(-356.2 -247.94)"/>
</clipPath>
</defs>
</svg>
