<svg width="21" height="21" viewBox="0 0 21 21" fill="none" xmlns="http://www.w3.org/2000/svg">
<g clip-path="url(#clip0_5_1767)">
<g clip-path="url(#clip1_5_1767)">
<path opacity="0.4" fill-rule="evenodd" clip-rule="evenodd" d="M13.11 6.06006V3.06006C13.11 2.79506 13.2154 2.54006 13.4029 2.35306C13.5904 2.16506 13.8448 2.06006 14.11 2.06006C14.3752 2.06006 14.6296 2.16506 14.8171 2.35306C15.0046 2.54006 15.11 2.79506 15.11 3.06006V6.06006H13.11ZM10.11 6.06006V1.06006C10.11 0.795059 10.2154 0.540058 10.4029 0.353058C10.5904 0.165058 10.8448 0.0600586 11.11 0.0600586C11.3752 0.0600586 11.6296 0.165058 11.8171 0.353058C12.0046 0.540058 12.11 0.795059 12.11 1.06006V6.06006H10.11ZM7.10999 6.06006V3.06006C7.10999 2.79506 7.21535 2.54006 7.40288 2.35306C7.59042 2.16506 7.84477 2.06006 8.10999 2.06006C8.37521 2.06006 8.62956 2.16506 8.8171 2.35306C9.00463 2.54006 9.10999 2.79506 9.10999 3.06006V6.06006H7.10999ZM4.10999 6.06006V5.06006C4.10999 4.79506 4.21535 4.54006 4.40288 4.35306C4.59042 4.16506 4.84477 4.06006 5.10999 4.06006C5.37521 4.06006 5.62956 4.16506 5.8171 4.35306C6.00463 4.54006 6.10999 4.79506 6.10999 5.06006V6.06006H4.10999Z" fill="#999999"/>
<path fill-rule="evenodd" clip-rule="evenodd" d="M17.11 16.0601V9.06006C17.11 8.79506 17.0046 8.54006 16.8171 8.35306C16.6296 8.16506 16.3752 8.06006 16.11 8.06006C15.8448 8.06006 15.5904 8.16506 15.4029 8.35306C15.2154 8.54006 15.11 8.79506 15.11 9.06006V12.1111C14.9448 12.0821 14.7777 12.0651 14.61 12.0601C13.6817 12.0601 12.7915 12.4291 12.1351 13.0851C11.4788 13.7411 11.11 14.6321 11.11 15.5601C11.1159 15.7281 11.1346 15.8951 11.166 16.0601H0.109985V6.06006H20.11V16.0601H17.11ZM5.10999 9.06006C4.71443 9.06006 4.32774 9.17706 3.99884 9.39706C3.66995 9.61706 3.4136 9.92904 3.26223 10.295C3.11085 10.66 3.07126 11.0621 3.14843 11.4501C3.2256 11.8381 3.41607 12.1951 3.69577 12.4741C3.97548 12.7541 4.33185 12.9441 4.71981 13.0221C5.10777 13.0991 5.5099 13.0591 5.87536 12.9081C6.24081 12.7561 6.55316 12.5001 6.77292 12.1711C6.99269 11.8421 7.10999 11.4561 7.10999 11.0601C7.10999 10.5301 6.89928 10.0211 6.52421 9.64606C6.14913 9.27106 5.64042 9.06006 5.10999 9.06006Z" fill="#999999"/>
<path opacity="0.5" d="M5.10999 13.0601C6.21456 13.0601 7.10999 12.1651 7.10999 11.0601C7.10999 9.95506 6.21456 9.06006 5.10999 9.06006C4.00542 9.06006 3.10999 9.95506 3.10999 11.0601C3.10999 12.1651 4.00542 13.0601 5.10999 13.0601Z" fill="#999999"/>
<path opacity="0.4" fill-rule="evenodd" clip-rule="evenodd" d="M17.11 16.9971C16.5292 17.9331 15.7194 18.7051 14.757 19.2411C13.7947 19.7771 12.7115 20.0591 11.61 20.0601H10.61C9.32673 20.0601 8.07218 19.68 7.00444 18.968C5.93671 18.256 5.10355 17.2451 4.60999 16.0601H11.166C11.1346 15.8951 11.1159 15.7281 11.11 15.5601C11.11 14.6321 11.4788 13.7411 12.1351 13.0851C12.7915 12.4291 13.6817 12.0601 14.61 12.0601C14.7777 12.0651 14.9448 12.0821 15.11 12.1111V9.06006C15.11 8.79506 15.2154 8.54006 15.4029 8.35306C15.5904 8.16506 15.8448 8.06006 16.11 8.06006C16.3752 8.06006 16.6296 8.16506 16.8171 8.35306C17.0046 8.54006 17.11 8.79506 17.11 9.06006V16.9971Z" fill="#999999"/>
</g>
</g>
<defs>
<clipPath id="clip0_5_1767">
<rect width="20" height="20" fill="white" transform="translate(0.109985 0.0600586)"/>
</clipPath>
<clipPath id="clip1_5_1767">
<rect width="1276" height="320" fill="white" transform="translate(0.109985 -247.94)"/>
</clipPath>
</defs>
</svg>
