<svg width="31" height="37" viewBox="0 0 31 37" fill="none" xmlns="http://www.w3.org/2000/svg">
<path fill-rule="evenodd" clip-rule="evenodd" d="M31 18.48C31.0017 20.5035 30.2779 22.4605 28.96 23.996L28.98 24.012L28.6299 24.359C28.5499 24.444 28.4599 24.528 28.3799 24.61C28.3799 24.61 22.8 30.19 18.98 34.005C18.65 34.338 18.3298 34.657 18.0298 34.958C15.8198 37.166 15.19 37.182 13.02 35.004C12.69 34.678 12.34 34.33 11.98 33.966C8.15998 30.153 2.62012 24.61 2.62012 24.61C2.54012 24.528 2.45012 24.444 2.37012 24.359L2.02002 24.012L2.04004 23.996C0.725332 22.4627 0.00183714 20.5101 3.49516e-06 18.4903C-0.00183014 16.4706 0.717864 14.5166 2.02979 12.981H2.02002L2.06006 12.946C2.33837 12.6232 2.63902 12.3204 2.95996 12.04C2.95996 12.04 8.29 6.71794 12 3.00894C12.35 2.65294 12.6898 2.30895 13.0098 1.99295C15.2298 -0.223054 15.7402 -0.219041 17.9902 2.02496C18.384 2.42021 18.7324 2.85787 19.0298 3.32995C19.7193 4.26888 20.2467 5.31673 20.5898 6.42996C20.8692 7.42161 21.0074 8.4477 21 9.47793C21.0008 11.2122 20.6081 12.9241 19.8511 14.4845C19.0941 16.0449 17.9925 17.4131 16.6299 18.486C17.1043 18.8556 17.5462 19.2654 17.9502 19.711C18.3222 20.0779 18.651 20.4862 18.9302 20.928C20.2902 23.204 20.4799 23.536 18.8799 25.273C18.2788 25.9159 17.6447 26.527 16.98 27.104C16.98 27.04 17 26.98 17 26.915C16.9962 25.9608 16.7745 25.0202 16.3516 24.1649C15.9287 23.3096 15.3159 22.5623 14.5601 21.98C13.3174 20.7427 11.7942 19.8239 10.1201 19.302C8.74012 18.747 7.75 18.447 7.75 18.447C7.75 18.447 8.60987 18.2 10.1099 17.641C10.8299 17.37 11.3401 17.123 12.0801 16.768C13.0262 16.3243 13.8833 15.712 14.6099 14.961C15.8914 13.7786 16.7159 12.183 16.939 10.4537C17.162 8.72442 16.7696 6.97179 15.8301 5.50296L15.4902 5.17096L5.58985 15.071C4.70268 15.8137 4.14062 16.8734 4.02295 18.0245C3.90529 19.1755 4.24143 20.3271 4.95996 21.234V21.305L15.4902 31.885L25.9302 21.449V21.364C26.6136 20.5717 26.9927 19.5621 27 18.5158C27.0073 17.4695 26.6424 16.4548 25.9702 15.653L25.98 15.609L25.77 15.403C25.7 15.335 25.6398 15.271 25.5698 15.203C25.5698 15.203 25.4402 15.074 24.9102 14.543C23.0902 12.737 23.3401 13.501 23.3101 10.288C23.3039 9.14208 23.163 8.00088 22.8901 6.88794L28.04 12.033C28.361 12.3134 28.6616 12.6162 28.9399 12.939L28.98 12.974H28.9702C30.2859 14.5061 31.0062 16.4605 31 18.48Z" fill="white"/>
</svg>
