<svg width="10" height="15" viewBox="0 0 10 15" fill="none" xmlns="http://www.w3.org/2000/svg">
<path fill-rule="evenodd" clip-rule="evenodd" d="M10 5.05224C10 6.36223 9.49622 7.55455 8.67184 8.44604L4.88411 12.8762C4.58473 13.2354 4 13.0237 4 12.5561V9.95222C1.71776 9.48895 0 7.4712 0 5.05224C0 2.29082 2.23858 0.0522461 5 0.0522461C7.76142 0.0522461 10 2.29082 10 5.05224ZM5 2.05224C6.65685 2.05224 8 3.39539 8 5.05224C8 6.7091 6.65685 8.05225 5 8.05225C3.34315 8.05225 2 6.7091 2 5.05224C2 3.39539 3.34315 2.05224 5 2.05224Z" fill="#888888"/>
</svg>
