<svg width="14" height="14" viewBox="0 0 14 14" fill="none" xmlns="http://www.w3.org/2000/svg">
<path fill-rule="evenodd" clip-rule="evenodd" d="M11.0306 2.64952C10.9914 2.6686 10.9509 2.6851 10.9095 2.6989L4.47931 4.84229L7.31627 5.69338C7.63824 5.78997 7.89015 6.04188 7.98674 6.36386L8.83783 9.20081L10.9812 2.77063C10.995 2.72922 11.0115 2.68876 11.0306 2.64952ZM7.3802 11.3022C7.38195 11.3146 7.38391 11.3275 7.38612 11.3407C7.404 11.4479 7.44161 11.6062 7.52682 11.7766C7.61398 11.951 7.76042 12.1557 7.99881 12.3146C8.24346 12.4777 8.52472 12.5522 8.81109 12.5522C9.09747 12.5522 9.37873 12.4777 9.62337 12.3146C9.86176 12.1557 10.0082 11.951 10.0954 11.7766C10.1806 11.6062 10.2182 11.4479 10.2361 11.3407C10.2372 11.3341 10.2382 11.3277 10.2392 11.3213L12.8607 3.45675C12.8606 3.45678 12.8607 3.45672 12.8607 3.45675C12.8783 3.41727 12.9012 3.36387 12.9259 3.29964C12.9743 3.17399 13.0354 2.99242 13.0776 2.78174C13.1475 2.43208 13.2352 1.64127 12.637 1.04312C12.0389 0.444966 11.2481 0.532633 10.8984 0.602563C10.6877 0.6447 10.5062 0.705895 10.3805 0.754224C10.3163 0.778928 10.263 0.801703 10.2235 0.819402C10.2235 0.819389 10.2235 0.819415 10.2235 0.819402L2.35879 3.44095C2.35245 3.44193 2.346 3.44296 2.33946 3.44405C2.23219 3.46193 2.07389 3.49954 1.90349 3.58475C1.72916 3.67191 1.52442 3.81836 1.36549 4.05675C1.20239 4.3014 1.12793 4.58266 1.12793 4.86903C1.12793 5.1554 1.20239 5.43666 1.36549 5.68131C1.52442 5.9197 1.72916 6.06614 1.90349 6.15331C2.07389 6.23851 2.23219 6.27613 2.33946 6.294C2.35267 6.29622 2.36549 6.29817 2.37788 6.29992L6.22582 7.45431L7.3802 11.3022Z" fill="#FAFAFA"/>
</svg>
