<svg width="9" height="15" viewBox="0 0 9 15" fill="none" xmlns="http://www.w3.org/2000/svg">
<path fill-rule="evenodd" clip-rule="evenodd" d="M4.62571 9.24015C4.65547 9.2352 4.68524 9.22999 4.7147 9.22482C4.85308 9.20059 4.98446 9.17758 5.07451 9.18904C5.26858 9.21373 5.55641 9.595 5.80961 10.0509C6.08469 10.5461 6.28748 10.9933 6.27842 11.2837C6.26937 11.5741 5.80961 12.0469 5.55616 12.0486C5.30271 12.0503 5.12784 12.0486 4.66136 12.0009C4.19487 11.9532 3.52502 11.5037 3.33314 11.1998C3.29169 11.1341 3.25277 11.072 3.21503 11.0087C3.07804 10.779 2.95666 10.5341 2.7871 10.0509C2.66204 9.69444 2.5602 9.32969 2.48157 8.9597C2.42543 8.69554 2.38113 8.42871 2.34866 8.16033C2.30411 7.79204 2.28184 7.42083 2.28185 7.04963C2.28186 6.67843 2.30416 6.30723 2.34873 5.93894C2.3799 5.68146 2.42195 5.4254 2.47489 5.17174C2.55442 4.79073 2.65851 4.41516 2.78718 4.04839C2.95113 3.58104 3.07001 3.32867 3.20154 3.10754C3.2435 3.037 3.28674 2.96964 3.33314 2.8995C3.52502 2.60945 4.16751 2.14601 4.66136 2.09832C5.10277 2.0557 5.29058 2.05363 5.48582 2.05148C5.50902 2.05122 5.53232 2.05096 5.55616 2.05064C5.7807 2.04757 6.27575 2.51364 6.27842 2.81556C6.28109 3.11748 6.08469 3.55315 5.80961 4.04839C5.55641 4.50425 5.31439 4.88189 5.07451 4.91021C4.95328 4.92453 4.78346 4.89567 4.6257 4.86886L4.6228 4.86837C4.46954 4.84232 4.32802 4.81848 4.254 4.83842C4.10339 4.87898 3.82994 4.98544 3.77604 5.35923C3.77347 5.37706 3.771 5.39416 3.76863 5.41059C3.72131 5.73849 3.71275 5.79779 3.6921 6.04921C3.6646 6.38397 3.65085 6.71682 3.65085 7.04967C3.65085 7.3825 3.6646 7.71533 3.6921 8.05005L3.69337 8.06561C3.71414 8.31847 3.72321 8.42895 3.77604 8.74004C3.82994 9.05743 4.02572 9.22529 4.26013 9.2625C4.36259 9.27876 4.49401 9.26205 4.62571 9.24015ZM5.65484 6.82909C6.43008 6.61263 6.87928 6.0428 7.00791 5.87963L7.00916 5.87805C7.23988 5.58538 7.43034 5.25226 7.55955 5.01964C7.71403 4.74152 7.87852 4.4238 8.00753 4.10023C8.12336 3.80969 8.2847 3.33758 8.27992 2.79787C8.27486 2.22579 8.05672 1.78568 7.92451 1.55935C7.7729 1.29979 7.59215 1.08219 7.42397 0.912127C7.25593 0.742197 7.04937 0.56811 6.81207 0.422193C6.64899 0.321917 6.17082 0.0412208 5.52876 0.0500063C5.50628 0.050314 5.48375 0.0505717 5.46091 0.050833C5.24165 0.053341 4.9928 0.0561879 4.46891 0.106774C3.76691 0.174558 3.16786 0.489974 2.80272 0.724282C2.44553 0.953497 1.97741 1.32147 1.66358 1.79588C1.37471 2.23256 1.1655 2.62481 0.89837 3.38628C0.484472 4.56613 0.280316 5.81104 0.280273 7.04956C0.280231 8.28819 0.484334 9.53318 0.89833 10.7131C1.17347 11.4972 1.38402 11.8613 1.64037 12.2675C1.97336 12.795 2.48678 13.1762 2.83199 13.3922C3.19382 13.6187 3.7837 13.9225 4.45774 13.9914C5.00017 14.0468 5.24759 14.0515 5.56951 14.0494C6.17905 14.0453 6.63497 13.7907 6.83271 13.6677C7.08064 13.5133 7.29036 13.3302 7.45676 13.156C7.62419 12.9806 7.79578 12.764 7.93844 12.5126C8.06261 12.2937 8.26239 11.8797 8.27903 11.346C8.29676 10.7777 8.12042 10.2798 8.00924 10.0017C7.87965 9.67747 7.71387 9.35744 7.55955 9.07961C7.40002 8.79241 7.1983 8.46988 6.96568 8.1872C6.85096 8.04778 6.68911 7.86925 6.48227 7.70464C6.34414 7.59472 6.06021 7.38801 5.65487 7.27172C5.65162 7.12413 5.65161 6.97669 5.65484 6.82909Z" fill="white"/>
</svg>
