<svg width="14" height="11" viewBox="0 0 14 11" fill="none" xmlns="http://www.w3.org/2000/svg">
<path d="M9.87799 -0.00976562H0V10.9902H2.74902V7.41122H8.01703L10.421 10.9902H13.5L10.849 7.39523C11.673 7.26323 12.265 6.95023 12.627 6.45523C12.989 5.96023 13.17 5.16822 13.17 4.11322V3.28824C13.17 2.66224 13.105 2.16724 12.989 1.78824C12.874 1.40824 12.676 1.07823 12.397 0.782227C12.101 0.501227 11.771 0.303234 11.377 0.171234C10.981 0.0562341 10.487 -0.00976562 9.87799 -0.00976562ZM9.43298 4.98724H2.74902V2.41425H9.43298C9.81198 2.41425 10.076 2.48022 10.208 2.59622C10.339 2.71122 10.421 2.92623 10.421 3.23923V4.16223C10.421 4.49223 10.339 4.70724 10.208 4.82224C10.076 4.93723 9.81198 4.98724 9.43298 4.98724Z" fill="white"/>
</svg>
