<svg width="18" height="17" viewBox="0 0 18 17" fill="none" xmlns="http://www.w3.org/2000/svg">
<path d="M8.50448 0.562532C8.65416 0.101877 9.30586 0.101877 9.45554 0.562532L11.1129 5.66335C11.1798 5.86936 11.3718 6.00884 11.5884 6.00884H16.9517C17.4361 6.00884 17.6375 6.62865 17.2456 6.91335L12.9066 10.0658C12.7314 10.1932 12.658 10.4188 12.725 10.6249L14.3823 15.7257C14.532 16.1863 14.0048 16.5694 13.6129 16.2847L9.2739 13.1322C9.09866 13.0049 8.86136 13.0049 8.68612 13.1322L4.34711 16.2847C3.95525 16.5694 3.42801 16.1863 3.57769 15.7257L5.23504 10.6249C5.30198 10.4188 5.22865 10.1932 5.0534 10.0658L0.71439 6.91335C0.322533 6.62865 0.523921 6.00884 1.00829 6.00884H6.3716C6.58821 6.00884 6.78019 5.86936 6.84713 5.66335L8.50448 0.562532Z" fill="#E5C45B"/>
</svg>
