<svg width="15" height="14" viewBox="0 0 15 14" fill="none" xmlns="http://www.w3.org/2000/svg">
<path fill-rule="evenodd" clip-rule="evenodd" d="M12.98 12.0903C12.962 12.2893 12.8839 12.4784 12.7569 12.6334C12.6309 12.7874 12.461 12.9003 12.269 12.9573C12.077 13.0143 11.873 13.0123 11.683 12.9523C11.492 12.8923 11.324 12.7764 11.2 12.6194C10.11 11.7524 8.40996 10.5043 8.40996 10.5043C8.40996 10.5043 7.17995 12.6714 6.95995 12.8934C6.88695 12.9544 6.80296 13.0004 6.71196 13.0264C6.61996 13.0534 6.52495 13.0603 6.43095 13.0483C6.33596 13.0353 6.24596 13.0034 6.16496 12.9534C6.08396 12.9044 6.01395 12.8384 5.95995 12.7604C5.94895 12.7264 5.93497 12.6923 5.91997 12.6603L6.60994 9.20838L11.53 4.37537L4.81996 8.20435C4.81996 8.20435 1.78995 7.29834 1.33995 7.12134C1.22395 7.05834 1.12795 6.96336 1.06395 6.84735C0.999951 6.73135 0.968945 6.60039 0.976945 6.46839C0.983945 6.33639 1.02897 6.20938 1.10497 6.10138C1.18197 5.99338 1.28796 5.90938 1.40996 5.85938C2.04996 5.53338 13.34 1.22136 13.72 1.11036C14.1 0.999356 15.0999 0.710354 14.9899 1.68335C14.8799 2.65635 13.09 11.5563 12.98 12.0903Z" fill="white"/>
</svg>
