<svg width="13" height="15" viewBox="0 0 13 15" fill="none" xmlns="http://www.w3.org/2000/svg">
<path fill-rule="evenodd" clip-rule="evenodd" d="M12 5.99023C10.915 5.98623 9.86103 5.62722 9.00003 4.96722V10.4902C9.00003 11.3802 8.73604 12.2502 8.24204 12.9902C7.74704 13.7302 7.04402 14.3072 6.22202 14.6472C5.40002 14.9882 4.49504 15.0772 3.62204 14.9042C2.74904 14.7302 1.94703 14.3012 1.31803 13.6722C0.689028 13.0432 0.260033 12.2412 0.086033 11.3682C-0.086967 10.4952 0.00205207 9.59025 0.343052 8.76825C0.683052 7.94625 1.26003 7.24323 2.00003 6.74823C2.74003 6.25423 3.61003 5.99023 4.50003 5.99023C4.66703 5.99823 4.83403 6.01422 5.00003 6.04022V8.04022C4.83503 8.00722 4.66803 7.99023 4.50003 7.99023C4.00603 7.99023 3.52206 8.13725 3.11106 8.41125C2.70006 8.68625 2.38004 9.07626 2.19004 9.53326C2.00104 9.99026 1.95201 10.4932 2.04801 10.9782C2.14501 11.4632 2.38303 11.9082 2.73203 12.2582C3.08203 12.6072 3.52706 12.8463 4.01206 12.9423C4.49706 13.0383 5 12.9892 5.457 12.8002C5.914 12.6102 6.30401 12.2902 6.57901 11.8792C6.85301 11.4682 7.00003 10.9842 7.00003 10.4902V0.990234V-0.00976562H9.00003V0.990234C9.00003 1.78623 9.31606 2.54921 9.87906 3.11121C10.4411 3.67421 11.204 3.99023 12 3.99023C12.341 3.98723 12.68 3.92521 13 3.80621V5.89026C12.671 5.95726 12.336 5.99023 12 5.99023Z" fill="white"/>
</svg>
