<svg width="15" height="13" viewBox="0 0 15 13" fill="none" xmlns="http://www.w3.org/2000/svg">
<path fill-rule="evenodd" clip-rule="evenodd" d="M11 12.9902H3.99998C2.89498 12.9442 1.85398 12.4622 1.10398 11.6502C0.354978 10.8372 -0.0430187 9.76125 -1.87366e-05 8.65625V4.32324C-0.0420187 3.21924 0.354985 2.14226 1.10498 1.33026C1.85498 0.518261 2.89598 0.0362344 3.99998 -0.00976562H11C12.104 0.0362344 13.145 0.518238 13.895 1.33124C14.645 2.14324 15.042 3.21922 15 4.32422V8.65723C15.042 9.76223 14.645 10.8382 13.895 11.6502C13.145 12.4622 12.104 12.9442 11 12.9902ZM13 4.24524C13.031 3.68324 12.837 3.13121 12.463 2.71021C12.088 2.29021 11.562 2.03424 11 2.00024H3.99998C3.43798 2.03424 2.91198 2.29021 2.53698 2.71021C2.16198 3.13121 1.96898 3.68324 1.99998 4.24524V8.73425C1.96898 9.29625 2.16198 9.84823 2.53698 10.2692C2.91198 10.6892 3.43798 10.9452 3.99998 10.9792H11C11.562 10.9452 12.088 10.6892 12.463 10.2692C12.837 9.84823 13.031 9.29625 13 8.73425V4.24524ZM5.99998 3.97723L9.99998 6.49023L5.99998 9.00122V3.97723Z" fill="white"/>
</svg>
